<mxfile host="app.diagrams.net" modified="2022-08-12T07:15:39.143Z" agent="5.0 (Windows NT 10.0; Win64; x64) AppleWebKit/537.36 (KHTML, like Gecko) Chrome/104.0.5112.81 Safari/537.36" etag="i8vCy2-PqG9fZWpNnEO5" version="20.1.1" type="github">
  <diagram id="_R_tELUzRoue2LDTLkxt" name="Page-1">
    <mxGraphModel dx="1482" dy="735" grid="0" gridSize="10" guides="1" tooltips="1" connect="1" arrows="1" fold="1" page="1" pageScale="1" pageWidth="827" pageHeight="1169" math="0" shadow="0">
      <root>
        <mxCell id="0" />
        <mxCell id="1" parent="0" />
        <mxCell id="FvDmOPVAaLtM15C9KInH-10" value="Utilisateur" style="shape=umlActor;verticalLabelPosition=bottom;verticalAlign=top;html=1;outlineConnect=0;" parent="1" vertex="1">
          <mxGeometry x="130" y="400" width="30" height="60" as="geometry" />
        </mxCell>
        <mxCell id="FvDmOPVAaLtM15C9KInH-12" value="Lancer un protocole d&#39;enquête" style="ellipse;whiteSpace=wrap;html=1;" parent="1" vertex="1">
          <mxGeometry x="247.5" y="303" width="120" height="59" as="geometry" />
        </mxCell>
        <mxCell id="FvDmOPVAaLtM15C9KInH-13" value="Rentrer les informations nécessaires au protocoles&amp;nbsp;" style="ellipse;whiteSpace=wrap;html=1;" parent="1" vertex="1">
          <mxGeometry x="395.5" y="399" width="120" height="68" as="geometry" />
        </mxCell>
        <mxCell id="FvDmOPVAaLtM15C9KInH-14" value="Suivre l&#39;avancée du protocole&amp;nbsp;" style="ellipse;whiteSpace=wrap;html=1;" parent="1" vertex="1">
          <mxGeometry x="233.5" y="433" width="140" height="70" as="geometry" />
        </mxCell>
        <mxCell id="FgCpWEQIqoz4aIhJ1-Ft-1" value="Effectuer les tâches manuelles" style="ellipse;whiteSpace=wrap;html=1;" parent="1" vertex="1">
          <mxGeometry x="245" y="369" width="125" height="57" as="geometry" />
        </mxCell>
        <mxCell id="FgCpWEQIqoz4aIhJ1-Ft-2" value="Mettre fin au processus" style="ellipse;whiteSpace=wrap;html=1;" parent="1" vertex="1">
          <mxGeometry x="241" y="508.5" width="125" height="54" as="geometry" />
        </mxCell>
        <mxCell id="FgCpWEQIqoz4aIhJ1-Ft-3" value="Consulter l&#39;historique des processus" style="ellipse;whiteSpace=wrap;html=1;" parent="1" vertex="1">
          <mxGeometry x="245" y="573" width="125" height="61" as="geometry" />
        </mxCell>
        <mxCell id="FgCpWEQIqoz4aIhJ1-Ft-4" value="" style="endArrow=classic;html=1;rounded=0;entryX=0;entryY=0.5;entryDx=0;entryDy=0;" parent="1" target="FvDmOPVAaLtM15C9KInH-12" edge="1">
          <mxGeometry width="50" height="50" relative="1" as="geometry">
            <mxPoint x="165" y="432" as="sourcePoint" />
            <mxPoint x="250" y="300" as="targetPoint" />
          </mxGeometry>
        </mxCell>
        <mxCell id="FgCpWEQIqoz4aIhJ1-Ft-5" value="" style="endArrow=classic;html=1;rounded=0;entryX=0;entryY=0.5;entryDx=0;entryDy=0;" parent="1" target="FvDmOPVAaLtM15C9KInH-14" edge="1">
          <mxGeometry width="50" height="50" relative="1" as="geometry">
            <mxPoint x="166" y="437" as="sourcePoint" />
            <mxPoint x="255" y="510" as="targetPoint" />
          </mxGeometry>
        </mxCell>
        <mxCell id="FgCpWEQIqoz4aIhJ1-Ft-6" value="" style="endArrow=classic;html=1;rounded=0;entryX=0;entryY=0.5;entryDx=0;entryDy=0;" parent="1" target="FgCpWEQIqoz4aIhJ1-Ft-2" edge="1">
          <mxGeometry width="50" height="50" relative="1" as="geometry">
            <mxPoint x="165" y="439" as="sourcePoint" />
            <mxPoint x="249.4000000000001" y="499.70000000000005" as="targetPoint" />
          </mxGeometry>
        </mxCell>
        <mxCell id="FgCpWEQIqoz4aIhJ1-Ft-7" value="" style="endArrow=classic;html=1;rounded=0;entryX=0;entryY=0.5;entryDx=0;entryDy=0;" parent="1" target="FgCpWEQIqoz4aIhJ1-Ft-3" edge="1">
          <mxGeometry width="50" height="50" relative="1" as="geometry">
            <mxPoint x="163" y="441" as="sourcePoint" />
            <mxPoint x="260" y="630" as="targetPoint" />
          </mxGeometry>
        </mxCell>
        <mxCell id="FgCpWEQIqoz4aIhJ1-Ft-8" value="" style="endArrow=classic;html=1;rounded=0;entryX=0;entryY=0.5;entryDx=0;entryDy=0;" parent="1" target="FgCpWEQIqoz4aIhJ1-Ft-1" edge="1">
          <mxGeometry width="50" height="50" relative="1" as="geometry">
            <mxPoint x="166" y="434" as="sourcePoint" />
            <mxPoint x="270" y="640" as="targetPoint" />
          </mxGeometry>
        </mxCell>
        <mxCell id="FgCpWEQIqoz4aIhJ1-Ft-9" value="" style="endArrow=none;dashed=1;html=1;rounded=0;entryX=0;entryY=0.5;entryDx=0;entryDy=0;exitX=1;exitY=0.5;exitDx=0;exitDy=0;" parent="1" source="FgCpWEQIqoz4aIhJ1-Ft-1" target="FvDmOPVAaLtM15C9KInH-13" edge="1">
          <mxGeometry width="50" height="50" relative="1" as="geometry">
            <mxPoint x="288.5" y="378" as="sourcePoint" />
            <mxPoint x="338.5" y="328" as="targetPoint" />
          </mxGeometry>
        </mxCell>
        <mxCell id="FgCpWEQIqoz4aIhJ1-Ft-13" value="&lt;font style=&quot;font-size: 10px&quot;&gt;&amp;lt;&amp;lt;extends&amp;gt;&amp;gt;&lt;/font&gt;" style="text;html=1;strokeColor=none;fillColor=none;align=center;verticalAlign=middle;whiteSpace=wrap;rounded=0;" parent="1" vertex="1">
          <mxGeometry x="373.5" y="369" width="60" height="30" as="geometry" />
        </mxCell>
      </root>
    </mxGraphModel>
  </diagram>
</mxfile>
